<?xml version="1.0" standalone="no"?>
<!DOCTYPE svg PUBLIC "-//W3C//DTD SVG 20010904//EN"
 "http://www.w3.org/TR/2001/REC-SVG-20010904/DTD/svg10.dtd">
<svg version="1.0" xmlns="http://www.w3.org/2000/svg"
 width="188.000000pt" height="175.000000pt" viewBox="0 0 188.000000 175.000000"
 preserveAspectRatio="xMidYMid meet">

<g transform="translate(0.000000,175.000000) scale(0.100000,-0.100000)"
fill="#000000" stroke="none">
<path d="M555 1384 c-73 -38 -145 -134 -282 -379 -50 -88 -132 -233 -183 -323
-50 -89 -89 -169 -86 -177 9 -24 112 -48 185 -42 158 12 254 84 353 266 l56
103 61 -120 c69 -134 126 -206 186 -233 52 -24 89 -24 142 2 65 31 115 98 204
273 85 166 132 230 186 253 45 18 100 16 150 -6 l41 -19 -65 113 c-133 230
-215 311 -303 302 -39 -4 -52 -12 -95 -59 -49 -54 -76 -99 -134 -231 -28 -63
-33 -68 -58 -65 -30 3 -28 1 -102 158 -78 168 -166 231 -256 184z"/>
<path d="M1516 800 c-16 -5 -42 -22 -59 -37 -79 -74 -76 -188 6 -260 66 -58
159 -53 223 11 124 124 -2 336 -170 286z"/>
</g>
</svg>
